<svg xmlns="http://www.w3.org/2000/svg" shapeRendering="crispEdges" height="128" width="128" viewBox="0 0 29 29"><path fill="#FFFFFF" d="M0,0 h29v29H0z"></path><path fill="#000000" d="M0 0h7v1H0zM9 0h1v1H9zM12 0h1v1H12zM14 0h3v1H14zM18 0h1v1H18zM22,0 h7v1H22zM0 1h1v1H0zM6 1h1v1H6zM8 1h1v1H8zM10 1h5v1H10zM17 1h2v1H17zM22 1h1v1H22zM28,1 h1v1H28zM0 2h1v1H0zM2 2h3v1H2zM6 2h1v1H6zM8 2h1v1H8zM10 2h1v1H10zM13 2h1v1H13zM19 2h2v1H19zM22 2h1v1H22zM24 2h3v1H24zM28,2 h1v1H28zM0 3h1v1H0zM2 3h3v1H2zM6 3h1v1H6zM8 3h1v1H8zM12 3h1v1H12zM17 3h4v1H17zM22 3h1v1H22zM24 3h3v1H24zM28,3 h1v1H28zM0 4h1v1H0zM2 4h3v1H2zM6 4h1v1H6zM9 4h3v1H9zM16 4h5v1H16zM22 4h1v1H22zM24 4h3v1H24zM28,4 h1v1H28zM0 5h1v1H0zM6 5h1v1H6zM9 5h1v1H9zM11 5h2v1H11zM16 5h2v1H16zM20 5h1v1H20zM22 5h1v1H22zM28,5 h1v1H28zM0 6h7v1H0zM8 6h1v1H8zM10 6h1v1H10zM12 6h1v1H12zM14 6h1v1H14zM16 6h1v1H16zM18 6h1v1H18zM20 6h1v1H20zM22,6 h7v1H22zM8 7h1v1H8zM11 7h2v1H11zM14 7h1v1H14zM0 8h1v1H0zM6 8h1v1H6zM8 8h2v1H8zM12 8h1v1H12zM15 8h3v1H15zM19 8h1v1H19zM21 8h2v1H21zM25 8h3v1H25zM3 9h3v1H3zM8 9h1v1H8zM10 9h4v1H10zM15 9h1v1H15zM19 9h1v1H19zM21 9h1v1H21zM23 9h2v1H23zM26 9h2v1H26zM0 10h1v1H0zM4 10h1v1H4zM6 10h1v1H6zM8 10h2v1H8zM13 10h3v1H13zM17 10h2v1H17zM21 10h1v1H21zM23 10h2v1H23zM1 11h1v1H1zM3 11h3v1H3zM11 11h1v1H11zM13 11h1v1H13zM15 11h1v1H15zM20 11h1v1H20zM22 11h4v1H22zM0 12h3v1H0zM4 12h1v1H4zM6 12h1v1H6zM9 12h3v1H9zM13 12h1v1H13zM15 12h1v1H15zM20 12h1v1H20zM22 12h2v1H22zM28,12 h1v1H28zM0 13h4v1H0zM5 13h1v1H5zM7 13h1v1H7zM9 13h1v1H9zM12 13h1v1H12zM15 13h6v1H15zM22 13h3v1H22zM27,13 h2v1H27zM1 14h1v1H1zM6 14h1v1H6zM11 14h2v1H11zM15 14h2v1H15zM18 14h1v1H18zM21 14h1v1H21zM25 14h2v1H25zM0 15h2v1H0zM4 15h1v1H4zM8 15h1v1H8zM10 15h3v1H10zM19 15h1v1H19zM23 15h2v1H23zM26 15h1v1H26zM28,15 h1v1H28zM0 16h2v1H0zM4 16h1v1H4zM6 16h1v1H6zM9 16h4v1H9zM15 16h1v1H15zM17 16h1v1H17zM19 16h1v1H19zM21 16h1v1H21zM23 16h1v1H23zM25 16h2v1H25zM0 17h3v1H0zM4 17h1v1H4zM7 17h1v1H7zM9 17h2v1H9zM13 17h4v1H13zM19 17h1v1H19zM22 17h3v1H22zM26,17 h3v1H26zM0 18h4v1H0zM6 18h1v1H6zM8 18h1v1H8zM11 18h1v1H11zM15 18h3v1H15zM19 18h2v1H19zM24 18h2v1H24zM28,18 h1v1H28zM0 19h1v1H0zM2 19h1v1H2zM7 19h2v1H7zM10 19h1v1H10zM12 19h2v1H12zM16 19h1v1H16zM18 19h1v1H18zM22 19h3v1H22zM0 20h1v1H0zM2 20h2v1H2zM5 20h3v1H5zM11 20h1v1H11zM14 20h4v1H14zM20 20h5v1H20zM26,20 h3v1H26zM8 21h2v1H8zM14 21h2v1H14zM18 21h3v1H18zM24 21h2v1H24zM0 22h7v1H0zM10 22h1v1H10zM12 22h1v1H12zM15 22h2v1H15zM19 22h2v1H19zM22 22h1v1H22zM24 22h3v1H24zM0 23h1v1H0zM6 23h1v1H6zM9 23h4v1H9zM14 23h3v1H14zM19 23h2v1H19zM24 23h1v1H24zM0 24h1v1H0zM2 24h3v1H2zM6 24h1v1H6zM9 24h2v1H9zM12 24h3v1H12zM16 24h1v1H16zM19 24h7v1H19zM28,24 h1v1H28zM0 25h1v1H0zM2 25h3v1H2zM6 25h1v1H6zM10 25h2v1H10zM14 25h3v1H14zM18 25h1v1H18zM21 25h1v1H21zM25 25h2v1H25zM28,25 h1v1H28zM0 26h1v1H0zM2 26h3v1H2zM6 26h1v1H6zM10 26h8v1H10zM21 26h7v1H21zM0 27h1v1H0zM6 27h1v1H6zM9 27h2v1H9zM13 27h3v1H13zM18 27h2v1H18zM22 27h1v1H22zM25 27h2v1H25zM28,27 h1v1H28zM0 28h7v1H0zM8 28h1v1H8zM10 28h1v1H10zM13 28h2v1H13zM17 28h1v1H17zM19 28h1v1H19zM24 28h3v1H24z"></path></svg>
